<svg width="23" height="23" viewBox="0 0 23 23" fill="none" xmlns="http://www.w3.org/2000/svg">
<path d="M4.9 12.6V13.1V13.1V12.6ZM18.1 12.6V12.1V12.1V12.6ZM4.9 11.1333V11.6333V11.6333V11.1333ZM18.1 11.1333V10.6333V10.6333V11.1333ZM10.7667 18.4667H11.2667V5.26667H10.7667H10.2667V18.4667H10.7667ZM12.2333 5.26667H11.7333V18.4667H12.2333H12.7333V5.26667H12.2333ZM4.9 12.6V13.1H18.1V12.6V12.1H4.9V12.6ZM4.9 12.6V12.1C4.77113 12.1 4.66667 11.9955 4.66667 11.8667H4.16667H3.66667C3.66667 12.5478 4.21885 13.1 4.9 13.1V12.6ZM18.8333 11.8667H18.3333C18.3333 11.9955 18.2289 12.1 18.1 12.1V12.6V13.1C18.7812 13.1 19.3333 12.5478 19.3333 11.8667H18.8333ZM4.9 11.1333V10.6333C4.21885 10.6333 3.66667 11.1855 3.66667 11.8667H4.16667H4.66667C4.66667 11.7378 4.77113 11.6333 4.9 11.6333V11.1333ZM18.1 11.1333V11.6333C18.2289 11.6333 18.3333 11.7378 18.3333 11.8667H18.8333H19.3333C19.3333 11.1855 18.7812 10.6333 18.1 10.6333V11.1333ZM12.2333 18.4667H11.7333C11.7333 18.5955 11.6289 18.7 11.5 18.7V19.2V19.7C12.1812 19.7 12.7333 19.1478 12.7333 18.4667H12.2333ZM11.5 4.53333V5.03333C11.6289 5.03333 11.7333 5.1378 11.7333 5.26667H12.2333H12.7333C12.7333 4.58552 12.1812 4.03333 11.5 4.03333V4.53333ZM10.7667 5.26667H11.2667C11.2667 5.1378 11.3711 5.03333 11.5 5.03333V4.53333V4.03333C10.8188 4.03333 10.2667 4.58552 10.2667 5.26667H10.7667ZM10.7667 18.4667H10.2667C10.2667 19.1478 10.8188 19.7 11.5 19.7V19.2V18.7C11.3711 18.7 11.2667 18.5955 11.2667 18.4667H10.7667ZM22.5 11.5H22C22 17.299 17.299 22 11.5 22V22.5V23C17.8513 23 23 17.8513 23 11.5H22.5ZM11.5 22.5V22C5.70101 22 1 17.299 1 11.5H0.5H0C0 17.8513 5.14873 23 11.5 23V22.5ZM0.5 11.5H1C1 5.70101 5.70101 1 11.5 1V0.5V0C5.14873 0 0 5.14873 0 11.5H0.5ZM11.5 0.5V1C17.299 1 22 5.70101 22 11.5H22.5H23C23 5.14873 17.8513 0 11.5 0V0.5ZM10.7667 11.1333V10.6333H4.9V11.1333V11.6333H10.7667V11.1333ZM18.1 11.1333V10.6333H14.4333V11.1333V11.6333H18.1V11.1333ZM14.4333 11.1333V10.6333H10.7667V11.1333V11.6333H14.4333V11.1333Z" fill="#42569D"/>
</svg>
