<svg width="45" height="45" viewBox="0 0 45 45" fill="none" xmlns="http://www.w3.org/2000/svg">
<circle cx="22.5" cy="22.5" r="22.5" fill="white"/>
<path d="M23 22.5C22.337 22.5 21.7011 22.2366 21.2322 21.7678C20.7634 21.2989 20.5 20.663 20.5 20C20.5 19.337 20.7634 18.7011 21.2322 18.2322C21.7011 17.7634 22.337 17.5 23 17.5C23.663 17.5 24.2989 17.7634 24.7678 18.2322C25.2366 18.7011 25.5 19.337 25.5 20C25.5 20.3283 25.4353 20.6534 25.3097 20.9567C25.1841 21.26 24.9999 21.5356 24.7678 21.7678C24.5356 21.9999 24.26 22.1841 23.9567 22.3097C23.6534 22.4353 23.3283 22.5 23 22.5ZM23 13C21.1435 13 19.363 13.7375 18.0503 15.0503C16.7375 16.363 16 18.1435 16 20C16 25.25 23 33 23 33C23 33 30 25.25 30 20C30 18.1435 29.2625 16.363 27.9497 15.0503C26.637 13.7375 24.8565 13 23 13Z" fill="#42569D" fill-opacity="0.8"/>
</svg>
