<svg width="45" height="45" viewBox="0 0 45 45" fill="none" xmlns="http://www.w3.org/2000/svg">
<circle cx="22.5" cy="22.5" r="22.5" fill="white"/>
<g clip-path="url(#clip0_12815_14373)">
<path d="M31.7559 15.6666C31.6726 15.658 31.5886 15.658 31.5053 15.6666H14.3942C14.2845 15.6683 14.1756 15.6847 14.0703 15.7155L22.9009 24.5094L31.7559 15.6666Z" fill="#42569D" fill-opacity="0.8"/>
<path d="M32.6619 16.5156L23.7641 25.3767C23.5351 25.6044 23.2254 25.7322 22.9025 25.7322C22.5796 25.7322 22.2698 25.6044 22.0408 25.3767L13.2225 16.5828C13.1954 16.6825 13.181 16.7852 13.1797 16.8884V29.1106C13.1797 29.4348 13.3085 29.7457 13.5377 29.9749C13.7669 30.2041 14.0778 30.3328 14.4019 30.3328H31.513C31.8372 30.3328 32.1481 30.2041 32.3773 29.9749C32.6065 29.7457 32.7352 29.4348 32.7352 29.1106V16.8884C32.7304 16.7611 32.7056 16.6353 32.6619 16.5156ZM15.2391 29.1106H14.3897V28.2367L18.8325 23.8306L19.6941 24.6923L15.2391 29.1106ZM31.5008 29.1106H30.6452L26.1902 24.6923L27.0519 23.8306L31.4947 28.2367L31.5008 29.1106Z" fill="#42569D" fill-opacity="0.8"/>
</g>
<defs>
<clipPath id="clip0_12815_14373">
<rect width="22" height="22" fill="white" transform="translate(12 12)"/>
</clipPath>
</defs>
</svg>
