<svg width="45" height="45" viewBox="0 0 45 45" fill="none" xmlns="http://www.w3.org/2000/svg">
<circle cx="22.5" cy="22.5" r="22.5" fill="white"/>
<path d="M32.5794 27.9042C32.3551 27.6653 31.5632 26.9589 30.1074 26.0243C28.6409 25.0816 27.5594 24.4937 27.2491 24.3567C27.2218 24.3445 27.1917 24.3401 27.162 24.3438C27.1323 24.3475 27.1042 24.3592 27.0807 24.3777C26.581 24.7675 25.7397 25.4833 25.6945 25.522C25.4032 25.7716 25.4032 25.7716 25.1647 25.6939C24.7454 25.5564 23.4425 24.8646 22.3073 23.7268C21.1721 22.5889 20.4446 21.2539 20.3071 20.835C20.2285 20.5961 20.2285 20.5961 20.479 20.3047C20.5177 20.2596 21.234 19.4183 21.6237 18.919C21.6422 18.8955 21.6539 18.8674 21.6576 18.8377C21.6613 18.808 21.6569 18.7779 21.6447 18.7505C21.5077 18.4399 20.9199 17.3588 19.9771 15.8923C19.0413 14.4369 18.3357 13.645 18.0968 13.4207C18.0749 13.4 18.0478 13.3856 18.0184 13.379C17.9889 13.3725 17.9583 13.3739 17.9297 13.3833C17.0946 13.6703 16.2888 14.0365 15.5234 14.4769C14.7845 14.9064 14.085 15.4003 13.433 15.9528C13.4102 15.9722 13.3932 15.9974 13.3836 16.0257C13.3741 16.054 13.3724 16.0844 13.3788 16.1136C13.4686 16.5321 13.8979 18.2792 15.2299 20.6992C16.589 23.169 17.5309 24.4344 19.5268 26.4235C21.5227 28.4125 22.8281 29.4111 25.3005 30.7702C27.7205 32.1022 29.4685 32.5319 29.8861 32.6209C29.9154 32.6272 29.9458 32.6255 29.9742 32.616C30.0025 32.6065 30.0278 32.5894 30.0473 32.5667C30.5997 31.9147 31.0935 31.2152 31.5228 30.4763C31.9631 29.7109 32.3293 28.9051 32.6164 28.07C32.6256 28.0416 32.627 28.0112 32.6205 27.9821C32.614 27.9529 32.5998 27.926 32.5794 27.9042Z" fill="#42569D" fill-opacity="0.8"/>
</svg>
