<svg width="22" height="22" viewBox="0 0 22 22" fill="none" xmlns="http://www.w3.org/2000/svg">
<g clip-path="url(#clip0_11746_13686)">
<path d="M12.0312 0.000968847C17.5355 0.000968847 22 4.46542 22 9.96972C22 10.5412 21.5402 11.001 20.9688 11.001C20.3973 11.001 19.9375 10.5412 19.9375 9.96972C19.9375 5.60409 16.3969 2.06347 12.0312 2.06347C11.4598 2.06347 11 1.6037 11 1.03222C11 0.460735 11.4598 0.000968847 12.0312 0.000968847ZM12.375 8.25097C12.7397 8.25097 13.0894 8.39583 13.3473 8.6537C13.6051 8.91156 13.75 9.2613 13.75 9.62597C13.75 9.99064 13.6051 10.3404 13.3473 10.5982C13.0894 10.8561 12.7397 11.001 12.375 11.001C12.0103 11.001 11.6606 10.8561 11.4027 10.5982C11.1449 10.3404 11 9.99064 11 9.62597C11 9.2613 11.1449 8.91156 11.4027 8.6537C11.6606 8.39583 12.0103 8.25097 12.375 8.25097ZM11 5.15722C11 4.58573 11.4598 4.12597 12.0312 4.12597C15.2582 4.12597 17.875 6.74277 17.875 9.96972C17.875 10.5412 17.4152 11.001 16.8438 11.001C16.2723 11.001 15.8125 10.5412 15.8125 9.96972C15.8125 7.88144 14.1195 6.18847 12.0312 6.18847C11.4598 6.18847 11 5.7287 11 5.15722ZM5.04883 0.0611251C5.88242 -0.166609 6.75469 0.258781 7.08555 1.058L8.8043 5.183C9.09648 5.88339 8.89453 6.6955 8.30586 7.17245L6.1875 8.90839C7.61836 11.9334 10.0676 14.3826 13.0926 15.8135L14.8242 13.6951C15.3055 13.1064 16.1133 12.9045 16.8137 13.1967L20.9387 14.9154C21.7379 15.2463 22.1633 16.1185 21.9355 16.9521L20.9043 20.7334C20.7023 21.481 20.0234 22.001 19.25 22.001C8.61953 22.001 0 13.3814 0 2.75097C0 1.97753 0.519922 1.29863 1.26758 1.09238L5.04883 0.0611251Z" fill="white"/>
</g>
<defs>
<clipPath id="clip0_11746_13686">
<rect width="22" height="22" fill="white"/>
</clipPath>
</defs>
</svg>
