<svg width="52" height="52" viewBox="0 0 52 52" fill="none" xmlns="http://www.w3.org/2000/svg">
<circle cx="26" cy="26" r="26" fill="white"/>
<path d="M33.1611 18.7412C31.1152 16.6904 28.3906 15.5625 25.4951 15.5625C19.5186 15.5625 14.6553 20.4258 14.6553 26.4023C14.6553 28.3115 15.1533 30.1768 16.1006 31.8223L14.5625 37.4375L20.3096 35.9287C21.8916 36.793 23.6738 37.2471 25.4902 37.2471H25.4951C31.4668 37.2471 36.4375 32.3838 36.4375 26.4072C36.4375 23.5117 35.207 20.792 33.1611 18.7412ZM25.4951 35.4209C23.874 35.4209 22.2871 34.9863 20.9053 34.166L20.5781 33.9707L17.1699 34.8643L18.0781 31.5391L17.8633 31.1973C16.96 29.7617 16.4863 28.1064 16.4863 26.4023C16.4863 21.4365 20.5293 17.3936 25.5 17.3936C27.9072 17.3936 30.168 18.3311 31.8672 20.0352C33.5664 21.7393 34.6113 24 34.6064 26.4072C34.6064 31.3779 30.4609 35.4209 25.4951 35.4209ZM30.4365 28.6729C30.168 28.5361 28.835 27.8818 28.5859 27.7939C28.3369 27.7012 28.1563 27.6572 27.9756 27.9307C27.7949 28.2041 27.2773 28.8096 27.1162 28.9951C26.96 29.1758 26.7988 29.2002 26.5303 29.0635C24.9385 28.2676 23.8936 27.6426 22.8438 25.8408C22.5654 25.3623 23.1221 25.3965 23.6396 24.3613C23.7275 24.1807 23.6836 24.0244 23.6152 23.8877C23.5469 23.751 23.0049 22.418 22.7803 21.876C22.5605 21.3486 22.3359 21.4219 22.1699 21.4121C22.0137 21.4023 21.833 21.4023 21.6523 21.4023C21.4717 21.4023 21.1787 21.4707 20.9297 21.7393C20.6807 22.0127 19.9824 22.667 19.9824 24C19.9824 25.333 20.9541 26.6221 21.0859 26.8027C21.2227 26.9834 22.9951 29.7178 25.7148 30.8945C27.4336 31.6367 28.1074 31.7002 28.9668 31.5732C29.4893 31.4951 30.5684 30.9189 30.793 30.2842C31.0176 29.6494 31.0176 29.1074 30.9492 28.9951C30.8857 28.873 30.7051 28.8047 30.4365 28.6729Z" fill="#6878B1"/>
</svg>
