<svg width="52" height="52" viewBox="0 0 52 52" fill="none" xmlns="http://www.w3.org/2000/svg">
<circle cx="26" cy="26" r="26" fill="white"/>
<path d="M36.8569 20.7757C36.5842 19.7493 35.781 18.9408 34.7612 18.6665C32.9127 18.168 25.5003 18.168 25.5003 18.168C25.5003 18.168 18.088 18.168 16.2394 18.6665C15.2196 18.9409 14.4164 19.7493 14.1437 20.7757C13.6484 22.6363 13.6484 26.5181 13.6484 26.5181C13.6484 26.5181 13.6484 30.4 14.1437 32.2605C14.4164 33.287 15.2196 34.0618 16.2394 34.3361C18.088 34.8346 25.5003 34.8346 25.5003 34.8346C25.5003 34.8346 32.9126 34.8346 34.7612 34.3361C35.781 34.0618 36.5842 33.287 36.8569 32.2605C37.3522 30.4 37.3522 26.5181 37.3522 26.5181C37.3522 26.5181 37.3522 22.6363 36.8569 20.7757ZM23.076 30.0426V22.9937L29.2713 26.5182L23.076 30.0426Z" fill="#6878B1"/>
</svg>
