<svg width="52" height="52" viewBox="0 0 52 52" fill="none" xmlns="http://www.w3.org/2000/svg">
<circle cx="26" cy="26" r="26" fill="white"/>
<path d="M25.5085 20.8855C22.4031 20.8855 19.8982 23.3904 19.8982 26.4958C19.8982 29.6013 22.4031 32.1062 25.5085 32.1062C28.614 32.1062 31.1189 29.6013 31.1189 26.4958C31.1189 23.3904 28.614 20.8855 25.5085 20.8855ZM25.5085 30.1433C23.5017 30.1433 21.8611 28.5076 21.8611 26.4958C21.8611 24.4841 23.4968 22.8484 25.5085 22.8484C27.5203 22.8484 29.156 24.4841 29.156 26.4958C29.156 28.5076 27.5154 30.1433 25.5085 30.1433ZM32.657 20.656C32.657 21.3835 32.071 21.9646 31.3484 21.9646C30.6209 21.9646 30.0398 21.3787 30.0398 20.656C30.0398 19.9333 30.6257 19.3474 31.3484 19.3474C32.071 19.3474 32.657 19.9333 32.657 20.656ZM36.3728 21.9841C36.2898 20.2312 35.8894 18.6785 34.6052 17.3992C33.3259 16.1199 31.7732 15.7195 30.0203 15.6316C28.2136 15.5291 22.7986 15.5291 20.9919 15.6316C19.2439 15.7146 17.6912 16.115 16.407 17.3943C15.1228 18.6736 14.7273 20.2263 14.6394 21.9792C14.5369 23.7859 14.5369 29.2009 14.6394 31.0076C14.7224 32.7605 15.1228 34.3132 16.407 35.5925C17.6912 36.8718 19.239 37.2722 20.9919 37.3601C22.7986 37.4626 28.2136 37.4626 30.0203 37.3601C31.7732 37.2771 33.3259 36.8767 34.6052 35.5925C35.8845 34.3132 36.2849 32.7605 36.3728 31.0076C36.4753 29.2009 36.4753 23.7908 36.3728 21.9841ZM34.0388 32.946C33.658 33.9031 32.9207 34.6404 31.9587 35.0261C30.5183 35.5974 27.1003 35.4656 25.5085 35.4656C23.9167 35.4656 20.4939 35.5925 19.0583 35.0261C18.1013 34.6453 17.364 33.908 16.9783 32.946C16.407 31.5056 16.5388 28.0876 16.5388 26.4958C16.5388 24.9041 16.4119 21.4812 16.9783 20.0457C17.3591 19.0886 18.0964 18.3513 19.0583 17.9656C20.4988 17.3943 23.9167 17.5261 25.5085 17.5261C27.1003 17.5261 30.5232 17.3992 31.9587 17.9656C32.9158 18.3464 33.6531 19.0837 34.0388 20.0457C34.6101 21.4861 34.4783 24.9041 34.4783 26.4958C34.4783 28.0876 34.6101 31.5105 34.0388 32.946Z" fill="#6878B1"/>
</svg>
